<svg xmlns="http://www.w3.org/2000/svg" width="375" viewBox="0 0 375 225" height="225" version="1.0"><path d="M 266.46875 10.472656 C 210.132812 10.472656 164.46875 56.140625 164.46875 112.472656 C 164.46875 168.804688 210.132812 214.472656 266.46875 214.472656 C 322.800781 214.472656 368.46875 168.804688 368.46875 112.472656 C 368.46875 56.140625 322.800781 10.472656 266.46875 10.472656"/><path d="M 6.476562 21.816406 L 187.976562 21.816406 L 187.976562 203.316406 L 6.476562 203.316406 L 6.476562 21.816406"/><g fill="#FFF"><g><g><path d="M 4.484375 -57.703125 L 17.234375 -57.703125 L 17.234375 -34.328125 L 26.140625 -34.328125 L 26.140625 -57.703125 L 38.96875 -57.703125 L 38.96875 0 L 26.140625 0 L 26.140625 -25.21875 L 17.234375 -25.21875 L 17.234375 0 L 4.484375 0 Z M 4.484375 -57.703125" transform="translate(45.77 144.624)"/></g></g></g><g fill="#FFF"><g><g><path d="M 12.390625 -57.703125 L 26.921875 -57.703125 L 37.6875 0 L 25.921875 0 L 24 -12.1875 L 15.53125 -12.1875 L 13.53125 0 L 1.5 0 Z M 22.796875 -19.796875 L 19.734375 -42.3125 L 16.671875 -19.796875 Z M 22.796875 -19.796875" transform="translate(89.218 144.624)"/></g></g></g><g fill="#FFF"><g><g><path d="M 20.796875 0.859375 C 14.523438 0.859375 10.070312 -0.789062 7.4375 -4.09375 C 4.800781 -7.394531 3.484375 -12.15625 3.484375 -18.375 L 3.484375 -39.171875 C 3.484375 -45.535156 4.789062 -50.34375 7.40625 -53.59375 C 10.019531 -56.851562 14.484375 -58.484375 20.796875 -58.484375 C 26.828125 -58.484375 31.097656 -57.035156 33.609375 -54.140625 C 36.128906 -51.242188 37.390625 -47.132812 37.390625 -41.8125 L 37.390625 -36.828125 L 24.9375 -36.828125 L 24.9375 -42.59375 C 24.9375 -44.832031 24.695312 -46.546875 24.21875 -47.734375 C 23.738281 -48.921875 22.597656 -49.515625 20.796875 -49.515625 C 18.992188 -49.515625 17.804688 -48.882812 17.234375 -47.625 C 16.671875 -46.363281 16.390625 -44.617188 16.390625 -42.390625 L 16.390625 -15.25 C 16.390625 -12.96875 16.6875 -11.21875 17.28125 -10 C 17.875 -8.789062 19.046875 -8.1875 20.796875 -8.1875 C 22.554688 -8.1875 23.6875 -8.789062 24.1875 -10 C 24.6875 -11.21875 24.9375 -12.96875 24.9375 -15.25 L 24.9375 -21.296875 L 37.390625 -21.296875 L 37.390625 -16.3125 C 37.390625 -10.894531 36.128906 -6.675781 33.609375 -3.65625 C 31.097656 -0.644531 26.828125 0.859375 20.796875 0.859375 Z M 20.796875 0.859375" transform="translate(128.463 144.624)"/></g></g></g><g fill="#FFF"><g><g><path d="M 4.28125 -57.703125 L 17.03125 -57.703125 L 17.03125 -34.125 L 26.71875 -57.703125 L 39.171875 -57.703125 L 28.5 -31.625 L 39.671875 0 L 26.71875 0 L 18.375 -25.5 L 17.03125 -23.21875 L 17.03125 0 L 4.28125 0 Z M 4.28125 -57.703125" transform="translate(168.564 144.624)"/></g></g></g><g fill="#1C98ED"><g><g><path d="M 4.28125 -57.703125 L 19.296875 -57.703125 C 23.054688 -57.703125 26.253906 -57.304688 28.890625 -56.515625 C 31.523438 -55.734375 33.648438 -54.226562 35.265625 -52 C 36.878906 -49.769531 37.6875 -46.632812 37.6875 -42.59375 C 37.6875 -39.175781 36.945312 -36.515625 35.46875 -34.609375 C 34 -32.710938 31.910156 -31.503906 29.203125 -30.984375 C 32.523438 -30.554688 35.066406 -29.15625 36.828125 -26.78125 C 38.585938 -24.40625 39.46875 -21.175781 39.46875 -17.09375 C 39.46875 -5.695312 33.648438 0 22.015625 0 L 4.28125 0 Z M 19.515625 -34.625 C 22.222656 -34.625 24.0625 -35.238281 25.03125 -36.46875 C 26.007812 -37.707031 26.5 -39.628906 26.5 -42.234375 C 26.5 -44.515625 25.878906 -46.238281 24.640625 -47.40625 C 23.410156 -48.570312 21.609375 -49.15625 19.234375 -49.15625 L 17.03125 -49.15625 L 17.03125 -34.625 Z M 19.734375 -8.90625 C 22.441406 -8.90625 24.351562 -9.582031 25.46875 -10.9375 C 26.582031 -12.289062 27.140625 -14.414062 27.140625 -17.3125 C 27.140625 -20.582031 26.582031 -22.882812 25.46875 -24.21875 C 24.351562 -25.550781 22.414062 -26.21875 19.65625 -26.21875 L 17.03125 -26.21875 L 17.03125 -8.90625 Z M 19.734375 -8.90625" transform="translate(208.941 144.624)"/></g></g></g><g fill="#1C98ED"><g><g><path d="M 20.796875 0.859375 C 14.578125 0.859375 10.132812 -0.742188 7.46875 -3.953125 C 4.8125 -7.160156 3.484375 -11.898438 3.484375 -18.171875 L 3.484375 -39.609375 C 3.484375 -45.878906 4.8125 -50.59375 7.46875 -53.75 C 10.132812 -56.90625 14.578125 -58.484375 20.796875 -58.484375 C 27.066406 -58.484375 31.539062 -56.890625 34.21875 -53.703125 C 36.90625 -50.523438 38.25 -45.828125 38.25 -39.609375 L 38.25 -18.171875 C 38.25 -11.898438 36.90625 -7.160156 34.21875 -3.953125 C 31.539062 -0.742188 27.066406 0.859375 20.796875 0.859375 Z M 20.796875 -8.1875 C 22.597656 -8.1875 23.785156 -8.789062 24.359375 -10 C 24.929688 -11.21875 25.21875 -12.867188 25.21875 -14.953125 L 25.21875 -42.734375 C 25.21875 -44.878906 24.929688 -46.546875 24.359375 -47.734375 C 23.785156 -48.921875 22.597656 -49.515625 20.796875 -49.515625 C 19.085938 -49.515625 17.945312 -48.90625 17.375 -47.6875 C 16.8125 -46.476562 16.53125 -44.828125 16.53125 -42.734375 L 16.53125 -14.953125 C 16.53125 -12.867188 16.789062 -11.21875 17.3125 -10 C 17.832031 -8.789062 18.992188 -8.1875 20.796875 -8.1875 Z M 20.796875 -8.1875" transform="translate(250.822 144.624)"/></g></g></g><g fill="#1C98ED"><g><g><path d="M 11.6875 -31.0625 L 1 -57.703125 L 13.03125 -57.703125 L 19.375 -42.09375 L 24.5 -57.703125 L 35.125 -57.703125 L 25 -27.703125 L 36.265625 0 L 24.296875 0 L 17.234375 -17.234375 L 11.046875 0 L 0.5 0 Z M 11.6875 -31.0625" transform="translate(292.56 144.624)"/></g></g></g></svg>